<svg width="1078" height="677" viewBox="0 0 1078 677" fill="none" xmlns="http://www.w3.org/2000/svg">
<path d="M1 624L139.579 538.327C177.975 514.589 196.674 468.793 185.865 424.965L178.606 395.53C166.875 347.962 189.935 298.657 233.963 277.167L250.481 269.104C272.455 258.379 289.948 240.254 299.886 217.913L313.814 186.602C333.295 142.809 380.182 118.002 427.347 126.532L558.592 150.27C603.673 158.424 648.781 136.118 669.666 95.3421L683.838 67.6738C704.482 27.3693 748.752 5.47909 792.774 16.0958C803.5 18.6827 815.405 21.6378 828.5 25C902.5 44 1071 74.5 1071 74.5" stroke="#D9D9D9" stroke-width="1.4" stroke-linejoin="round"/>
<path d="M25 650L163.579 564.327C201.975 540.589 220.674 494.793 209.865 450.965L202.606 421.53C190.875 373.962 213.935 324.657 257.963 303.167L274.481 295.104C296.455 284.379 313.948 266.254 323.886 243.913L337.814 212.602C357.295 168.809 404.182 144.002 451.347 152.532L582.592 176.27C627.673 184.424 672.781 162.118 693.666 121.342L708.491 92.3979C728.819 52.71 772.194 30.3735 815.878 39.3186C828.888 41.9824 843.083 45.0436 858 48.5C922.5 63.4451 1073 89 1073 89" stroke="#D9D9D9" stroke-width="1.4" stroke-linejoin="round"/>
<path d="M49 676L187.579 590.327C225.975 566.589 244.674 520.793 233.865 476.965L226.606 447.53C214.875 399.962 237.935 350.657 281.963 329.167L298.481 321.104C320.455 310.379 337.948 292.254 347.886 269.913L361.814 238.602C381.295 194.809 428.182 170.002 475.347 178.532L606.592 202.271C651.673 210.424 696.781 188.118 717.666 147.342L738.539 106.59C755.791 72.9075 790.03 52.5558 827.398 58.5451C843.8 61.1742 863.986 64.8533 888.5 70C979 89 1077 103.5 1077 103.5" stroke="#D9D9D9" stroke-width="1.4" stroke-linejoin="round"/>
</svg>
